nColumns=19
nRows=135
DataType=double
version=3
OpenSimVersion=4.1
endheader
time	ground_force_calcn_r_vx	ground_force_calcn_r_vy	ground_force_calcn_r_vz	ground_force_calcn_r_px	ground_force_calcn_r_py	ground_force_calcn_r_pz	ground_force_calcn_r_mx	ground_force_calcn_r_my	ground_force_calcn_r_mz	ground_force_calcn_l_vx	ground_force_calcn_l_vy	ground_force_calcn_l_vz	ground_force_calcn_l_px	ground_force_calcn_l_py	ground_force_calcn_l_pz	ground_force_calcn_l_mx	ground_force_calcn_l_my	ground_force_calcn_l_mz
0.5	-3.89929	21.3869	-2.1463	1.0045	0	-0.12155	0.903823	-4.95729	0.497493	0	0	0	0	0	0	0	0	0
0.508333	-8.5074	58.3323	-5.54919	0.999257	0	-0.20739	0.623994	-4.27851	0.407017	0	0	0	0	0	0	0	0	0
0.516667	-11.2937	150.361	-10.9383	1.00375	0	-0.238938	-0.056244	0.74882	-0.054474	0	0	0	0	0	0	0	0	0
0.525	-10.6582	335.284	-16.4957	1.0018	0	-0.248694	-0.261774	8.23487	-0.405148	0	0	0	0	0	0	0	0	0
0.533333	-13.5835	622.307	-17.6199	0.996259	0	-0.253558	-0.265863	12.1801	-0.344866	0	0	0	0	0	0	0	0	0
0.541667	-33.6625	947.257	-10.1869	0.991124	0	-0.256664	-0.274264	7.71776	-0.0829978	0	0	0	0	0	0	0	0	0
0.55	-79.0772	1203.62	4.23025	0.987444	0	-0.258432	0.214889	-3.27078	-0.0114955	0	0	0	0	0	0	0	0	0
0.558333	-139.49	1351.56	17.4133	0.98357	0	-0.25958	1.30634	-12.6575	-0.163077	0	0	0	0	0	0	0	0	0
0.566667	-189.396	1445.68	21.3924	0.975795	0	-0.261224	1.81232	-13.8336	-0.204703	0	0	0	0	0	0	0	0	0
0.575	-210.327	1546.57	16.3424	0.962362	0	-0.263264	1.11359	-8.18842	-0.0865258	0	0	0	0	0	0	0	0	0
0.583333	-203.93	1661.16	9.12932	0.945698	0	-0.264129	0.300811	-2.45033	-0.0134664	0	0	0	0	0	0	0	0	0
0.591667	-184.045	1760.34	4.08606	0.928594	0	-0.263531	0.081618	-0.780654	-0.00181204	0	0	0	0	0	0	0	0	0
0.6	-156.783	1818.7	-1.16565	0.911247	0	-0.262708	0.100142	-1.16166	0.000744535	0	0	0	0	0	0	0	0	0
0.608333	-123.016	1830.39	-9.62841	0.893262	0	-0.262459	-0.000341207	0.00507693	-2.67062e-05	0	0	0	0	0	0	0	0	0
0.616667	-88.4186	1800.63	-18.7043	0.875541	0	-0.262374	-0.116121	2.36479	-0.0245645	0	0	0	0	0	0	0	0	0
0.625	-57.9446	1739.15	-23.2793	0.858775	0	-0.261626	-0.097776	2.93466	-0.0392815	0	0	0	0	0	0	0	0	0
0.633333	-29.906	1653.13	-22.6411	0.8427	0	-0.26027	-0.0218653	1.20865	-0.0165536	0	0	0	0	0	0	0	0	0
0.641667	-0.515381	1544.87	-20.3606	0.826651	0	-0.259246	6.17566e-05	-0.185117	0.00243975	0	0	0	0	0	0	0	0	0
0.65	28.5858	1418.18	-17.9906	0.810384	0	-0.259124	0.00367753	0.182448	-0.00231448	0	0	0	0	0	0	0	0	0
0.658333	54.3884	1282.83	-12.8255	0.794098	0	-0.259507	0.0151096	0.356382	-0.00356303	0	0	0	0	0	0	0	0	0
0.666667	78.9255	1148.73	-2.85503	0.777399	0	-0.259824	-0.121259	-1.76488	0.00438641	0	0	0	0	0	0	0	0	0
0.675	102.545	1016.5	9.1786	0.759513	0	-0.260368	-0.504694	-5.00288	-0.0451739	0	0	0	0	0	0	0	0	0
0.683333	121.135	882.027	18.6792	0.740286	0	-0.261723	-0.887454	-6.46187	-0.136847	0	0	0	0	0	0	0	0	0
0.691667	130.576	747.074	24.29	0.720242	0	-0.263582	-0.960543	-5.4956	-0.178681	0	0	0	0	0	0	0	0	0
0.7	130.677	619.388	27.9519	0.700167	0	-0.265008	-0.887948	-4.20874	-0.189933	0	0	0	0	0	0	0	0	0
0.708333	123.757	503.916	30.8056	0.680846	0	-0.265465	-1.0383	-4.22778	-0.258454	0	0	0	0	0	0	0	0	0
0.716667	110.159	399.415	31.2864	0.663303	0	-0.26505	-1.29095	-4.68071	-0.366643	0	0	0	0	0	0	0	0	0
0.725	91.2407	303.529	27.6895	0.648164	0	-0.263535	-1.16052	-3.86068	-0.352192	0	0	0	0	0	0	0	0	0
0.733333	70.7527	217.677	21.037	0.636071	0	-0.259796	-0.555454	-1.7089	-0.165154	0	0	0	0	0	0	0	0	0
0.741667	52.9564	146.578	14.285	0.629002	0	-0.251659	0.0772718	0.21388	0.0208441	0	0	0	0	0	0	0	0	0
0.75	39.0672	93.1434	9.33253	0.632237	0	-0.236941	0.316737	0.755161	0.0756635	0	0	0	0	0	0	0	0	0
0.758333	27.3298	55.4717	5.92647	0.655721	0	-0.216549	0.142995	0.290239	0.0310085	0	0	0	0	0	0	0	0	0
0.766667	16.7364	30.0395	3.31243	0.715116	0	-0.193372	-0.185397	-0.332762	-0.0366933	0	0	0	0	0	0	0	0	0
0.775	8.06204	14.5839	1.68748	-0.000766221	0	6.82951e-05	-1.02113e-19	-1.84718e-19	-2.13735e-20	0	0	0	0	0	0	0	0	0
0.783333	0	0	0	0	0	0	0	0	0	0	0	0	0	0	0	0	0	0
0.791667	0	0	0	0	0	0	0	0	0	0	0	0	0	0	0	0	0	0
0.8	0	0	0	0	0	0	0	0	0	0	0	0	0	0	0	0	0	0
0.808333	0	0	0	0	0	0	0	0	0	0	0	0	0	0	0	0	0	0
0.816667	0	0	0	0	0	0	0	0	0	0	0	0	0	0	0	0	0	0
0.825	0	0	0	0	0	0	0	0	0	0	0	0	0	0	0	0	0	0
0.833333	0	0	0	0	0	0	0	0	0	0	0	0	0	0	0	0	0	0
0.841667	0	0	0	0	0	0	0	0	0	0	0	0	0	0	0	0	0	0
0.85	0	0	0	0	0	0	0	0	0	0	0	0	0	0	0	0	0	0
0.858333	0	0	0	0	0	0	0	0	0	-2.05645	10.8506	-1.55505	-0.000766221	0	6.82681e-05	7.99665e-20	-4.21934e-19	6.04694e-20
0.866667	0	0	0	0	0	0	0	0	0	-4.08594	27.303	-4.35838	0.995455	0	-0.227229	0.371801	-2.48445	0.396592
0.875	0	0	0	0	0	0	0	0	0	-6.54417	70.2978	-8.53289	0.984839	0	-0.28108	0.0345154	-0.370766	0.0450043
0.883333	0	0	0	0	0	0	0	0	0	-7.25688	161.969	-13.5846	0.978204	0	-0.299273	-0.108197	2.41489	-0.202541
0.891667	0	0	0	0	0	0	0	0	0	-6.72129	325.808	-17.3843	0.969901	0	-0.304087	-0.0679238	3.29254	-0.175682
0.9	0	0	0	0	0	0	0	0	0	-12.4575	560.181	-17.7935	0.96245	0	-0.303735	-0.014374	0.646362	-0.0205309
0.908333	0	0	0	0	0	0	0	0	0	-31.2217	809.68	-15.415	0.95702	0	-0.301571	0.128392	-3.32963	0.0633906
0.916667	0	0	0	0	0	0	0	0	0	-64.6862	997.79	-13.9361	0.952641	0	-0.299871	0.251743	-3.88316	0.0542359
0.925	0	0	0	0	0	0	0	0	0	-106.843	1107.49	-15.9499	0.947651	0	-0.300312	-0.0838266	0.868911	-0.0125139
0.933333	0	0	0	0	0	0	0	0	0	-142.191	1189.89	-18.2671	0.939945	0	-0.302508	-0.776524	6.49815	-0.0997592
0.941667	0	0	0	0	0	0	0	0	0	-159.474	1292.51	-14.1564	0.928695	0	-0.303717	-0.785887	6.36947	-0.0697624
0.95	0	0	0	0	0	0	0	0	0	-158.078	1416.15	-1.76215	0.914712	0	-0.303038	0.0740325	-0.663221	0.000825262
0.958333	0	0	0	0	0	0	0	0	0	-143.44	1532.02	12.3931	0.898876	0	-0.302514	0.773097	-8.25713	-0.0667949
0.966667	0	0	0	0	0	0	0	0	0	-121.504	1617.05	20.8268	0.881928	0	-0.303674	0.723475	-9.62847	-0.124009
0.975	0	0	0	0	0	0	0	0	0	-95.765	1670.89	24.0118	0.864402	0	-0.305905	0.311138	-5.42869	-0.0780137
0.983333	0	0	0	0	0	0	0	0	0	-69.189	1703.19	28.59	0.846963	0	-0.307673	0.091378	-2.24941	-0.0377588
0.991667	0	0	0	0	0	0	0	0	0	-42.836	1717.31	37.579	0.829893	0	-0.308447	0.0999482	-4.00696	-0.0876821
1	0	0	0	0	0	0	0	0	0	-15.3029	1707.81	46.3032	0.812859	0	-0.309186	0.0691651	-7.71884	-0.209278
1.00833	0	0	0	0	0	0	0	0	0	13.4573	1669.59	49.0044	0.795455	0	-0.310733	-0.0685274	-8.50188	-0.24954
1.01667	0	0	0	0	0	0	0	0	0	40.8297	1607.02	45.8752	0.777842	0	-0.312511	-0.152331	-5.99558	-0.171155
1.025	0	0	0	0	0	0	0	0	0	64.5351	1529.37	40.982	0.760637	0	-0.31338	-0.155013	-3.67355	-0.0984387
1.03333	0	0	0	0	0	0	0	0	0	87.2548	1440.53	35.6379	0.743584	0	-0.313081	-0.201183	-3.32141	-0.0821701
1.04167	0	0	0	0	0	0	0	0	0	112.225	1337.46	27.3537	0.725661	0	-0.312325	-0.253865	-3.02549	-0.0618773
1.05	0	0	0	0	0	0	0	0	0	137.962	1217.85	14.8944	0.706358	0	-0.311616	-0.0843319	-0.744432	-0.00910445
1.05833	0	0	0	0	0	0	0	0	0	160.203	1085.24	1.21013	0.686231	0	-0.310554	0.369867	2.50553	0.00279388
1.06667	0	0	0	0	0	0	0	0	0	175.414	946.614	-9.69001	0.666378	0	-0.308651	0.790014	4.26329	-0.0436411
1.075	0	0	0	0	0	0	0	0	0	181.937	807.14	-16.7942	0.647262	0	-0.306285	0.899727	3.99153	-0.0830522
1.08333	0	0	0	0	0	0	0	0	0	178.019	668.511	-21.5571	0.628569	0	-0.304267	0.860483	3.23136	-0.1042
1.09167	0	0	0	0	0	0	0	0	0	162.814	534.013	-24.5006	0.610455	0	-0.302883	0.903767	2.96426	-0.136
1.1	0	0	0	0	0	0	0	0	0	138.905	410.194	-24.2687	0.594305	0	-0.301999	0.811008	2.39495	-0.141695
1.10833	0	0	0	0	0	0	0	0	0	111.509	301.75	-20.0843	0.581386	0	-0.301881	0.200538	0.542665	-0.0361194
1.11667	0	0	0	0	0	0	0	0	0	85.1041	209.952	-13.6182	0.571958	0	-0.303411	-0.841807	-2.07674	0.134705
1.125	0	0	0	0	0	0	0	0	0	61.0908	135.128	-7.65217	0.567468	0	-0.307874	-1.7943	-3.96885	0.224752
1.13333	0	0	0	0	0	0	0	0	0	40.1829	78.4101	-3.60418	0.574199	0	-0.315	-2.25305	-4.39645	0.202086
1.14167	0	0	0	0	0	0	0	0	0	23.3627	40.8774	-1.10034	0.609401	0	-0.317857	-2.24808	-3.93344	0.10588
1.15	0	0	0	0	0	0	0	0	0	11.4796	20.1931	0.526703	0.698666	0	-0.29875	-1.97391	-3.47218	-0.090566
1.15833	0	0	0	0	0	0	0	0	0	5.03241	10.398	1.31339	-0.000766246	0	6.81603e-05	-5.24082e-20	-1.08286e-19	-1.36779e-20
1.16667	0	0	0	0	0	0	0	0	0	0	0	0	0	0	0	0	0	0
1.175	0	0	0	0	0	0	0	0	0	0	0	0	0	0	0	0	0	0
1.18333	0	0	0	0	0	0	0	0	0	0	0	0	0	0	0	0	0	0
1.19167	0	0	0	0	0	0	0	0	0	0	0	0	0	0	0	0	0	0
1.2	0	0	0	0	0	0	0	0	0	0	0	0	0	0	0	0	0	0
1.20833	0	0	0	0	0	0	0	0	0	0	0	0	0	0	0	0	0	0
1.21667	0	0	0	0	0	0	0	0	0	0	0	0	0	0	0	0	0	0
1.225	0	0	0	0	0	0	0	0	0	0	0	0	0	0	0	0	0	0
1.23333	0	0	0	0	0	0	0	0	0	0	0	0	0	0	0	0	0	0
1.24167	-3.91096	17.2455	-1.24302	1.00232	0	-0.106032	0.714695	-3.15147	0.227151	0	0	0	0	0	0	0	0	0
1.25	-9.90164	43.3074	-3.87611	0.989185	0	-0.202499	0.494262	-2.16178	0.193484	0	0	0	0	0	0	0	0	0
1.25833	-15.5151	108.617	-6.67982	0.991977	0	-0.239778	-0.124072	0.868601	-0.0534178	0	0	0	0	0	0	0	0	0
1.26667	-13.9591	241.816	-8.82965	0.986301	0	-0.249633	-0.302784	5.24517	-0.191522	0	0	0	0	0	0	0	0	0
1.275	-5.97281	455.059	-8.55755	0.976059	0	-0.254014	-0.100136	7.62921	-0.14347	0	0	0	0	0	0	0	0	0
1.28333	-5.58371	713.369	-3.45093	0.967111	0	-0.257145	-0.0361143	4.61392	-0.0223199	0	0	0	0	0	0	0	0	0
1.29167	-29.3281	940.5	6.49497	0.961733	0	-0.258729	0.10365	-3.32386	-0.0229542	0	0	0	0	0	0	0	0	0
1.3	-79.0027	1088.14	16.2906	0.958645	0	-0.259034	0.768541	-10.5855	-0.158475	0	0	0	0	0	0	0	0	0
1.30833	-136.08	1184.54	19.2955	0.954248	0	-0.259494	1.28424	-11.179	-0.182099	0	0	0	0	0	0	0	0	0
1.31667	-175.288	1287.47	14.4025	0.945119	0	-0.260972	0.711434	-5.22541	-0.0584549	0	0	0	0	0	0	0	0	0
1.325	-184.345	1418.16	7.56564	0.931151	0	-0.262011	-0.156102	1.20088	0.00640653	0	0	0	0	0	0	0	0	0
1.33333	-170.872	1557.13	4.54166	0.914679	0	-0.261478	-0.305764	2.78639	0.00812701	0	0	0	0	0	0	0	0	0
1.34167	-146.987	1673.83	4.33281	0.897444	0	-0.260327	-0.0281249	0.320275	0.000829051	0	0	0	0	0	0	0	0	0
1.35	-118.272	1749.59	2.15762	0.879929	0	-0.259713	0.102997	-1.52362	-0.00187896	0	0	0	0	0	0	0	0	0
1.35833	-88.7392	1781.67	-3.04404	0.862572	0	-0.259573	0.0306504	-0.615387	0.00105141	0	0	0	0	0	0	0	0	0
1.36667	-60.0845	1777.28	-7.61314	0.845626	0	-0.259043	-0.0307291	0.908959	-0.00389361	0	0	0	0	0	0	0	0	0
1.375	-31.6628	1743.74	-9.1748	0.82893	0	-0.257735	-0.0178154	0.981129	-0.00516228	0	0	0	0	0	0	0	0	0
1.38333	-2.1852	1681.67	-9.74535	0.812323	0	-0.256235	-0.000951042	0.731895	-0.00424138	0	0	0	0	0	0	0	0	0
1.39167	27.0455	1590.65	-11.5033	0.795851	0	-0.255252	0.0345653	2.03291	-0.0147017	0	0	0	0	0	0	0	0	0
1.4	53.4937	1477.82	-12.4299	0.779552	0	-0.254767	0.141221	3.90138	-0.0328145	0	0	0	0	0	0	0	0	0
1.40833	79.1907	1354.71	-8.63944	0.762921	0	-0.254348	0.202723	3.46796	-0.0221164	0	0	0	0	0	0	0	0	0
1.41667	106.969	1226.71	0.322966	0.745127	0	-0.254097	-0.00606554	-0.0695591	-1.83134e-05	0	0	0	0	0	0	0	0	0
1.425	133.346	1092.15	10.8562	0.726126	0	-0.254632	-0.525861	-4.30698	-0.0428125	0	0	0	0	0	0	0	0	0
1.43333	152.075	950.093	19.4834	0.706571	0	-0.256082	-1.06102	-6.62872	-0.135934	0	0	0	0	0	0	0	0	0
1.44167	160.677	805.418	25.575	0.686781	0	-0.257817	-1.37519	-6.89334	-0.218889	0	0	0	0	0	0	0	0	0
1.45	160.513	666.536	29.8131	0.667053	0	-0.259103	-1.57951	-6.55898	-0.293373	0	0	0	0	0	0	0	0	0
1.45833	150.913	538.569	31.8439	0.648886	0	-0.259632	-1.76785	-6.30896	-0.373029	0	0	0	0	0	0	0	0	0
1.46667	130.753	421.969	30.5557	0.634055	0	-0.259344	-1.71912	-5.54801	-0.401743	0	0	0	0	0	0	0	0	0
1.475	104.045	316.993	25.9374	0.62247	0	-0.257702	-1.24065	-3.77989	-0.309283	0	0	0	0	0	0	0	0	0
1.48333	78.4954	225.894	19.6167	0.612872	0	-0.253396	-0.546192	-1.57183	-0.136498	0	0	0	0	0	0	0	0	0
1.49167	58.2297	151.147	13.5516	0.606153	0	-0.244799	-0.0188139	-0.0488354	-0.00437848	0	0	0	0	0	0	0	0	0
1.5	41.7151	93.7218	8.73444	0.608541	0	-0.231297	0.112651	0.253094	0.0235872	0	0	0	0	0	0	0	0	0
1.50833	27.1799	53.0476	5.23623	0.630723	0	-0.214561	-0.144059	-0.281164	-0.0277532	0	0	0	0	0	0	0	0	0
1.51667	15.0724	27.2893	2.95717	0.687537	0	-0.201438	-0.573806	-1.0389	-0.112579	0	0	0	0	0	0	0	0	0
1.525	6.84394	13.4162	1.8801	-0.000766336	0	6.80601e-05	-1.03403e-19	-2.02702e-19	-2.8406e-20	0	0	0	0	0	0	0	0	0
1.53333	0	0	0	0	0	0	0	0	0	0	0	0	0	0	0	0	0	0
1.54167	0	0	0	0	0	0	0	0	0	0	0	0	0	0	0	0	0	0
1.55	0	0	0	0	0	0	0	0	0	0	0	0	0	0	0	0	0	0
1.55833	0	0	0	0	0	0	0	0	0	0	0	0	0	0	0	0	0	0
1.56667	0	0	0	0	0	0	0	0	0	0	0	0	0	0	0	0	0	0
1.575	0	0	0	0	0	0	0	0	0	0	0	0	0	0	0	0	0	0
1.58333	0	0	0	0	0	0	0	0	0	0	0	0	0	0	0	0	0	0
1.59167	0	0	0	0	0	0	0	0	0	0	0	0	0	0	0	0	0	0
1.6	0	0	0	0	0	0	0	0	0	0	0	0	0	0	0	0	0	0
1.60833	0	0	0	0	0	0	0	0	0	0	0	0	0	0	0	0	0	0
1.61667	0	0	0	0	0	0	0	0	0	-3.01434	18.6283	-3.2607	1.02116	0	-0.221598	0.185455	-1.14609	0.200612
